# xmcd
#
# Track frame offsets:
#	150
#	20893
#	39536
#	58288
#	81446
#	101146
#	125958
#	145465
#	163789
#	183343
#	201354
#	221304
#
# Disc length: 3159 seconds
# Revision: 0
# Processed by: cddbd v1.5.2PL0 Copyright (c) Steve Scherf et al.
# Submitted via: dBpowerAMP V12.0
#
DISCID=c10c550c
DTITLE=Plateros - Hang On
DYEAR=2009
DGENRE=Gospel
TTITLE0=Without You
TTITLE1=You're All I'm Dreaming of
TTITLE2=I Found You
TTITLE3=Where Would I Be
TTITLE4=Latter Rain
TTITLE5=Rio Puerco
TTITLE6=When the Night Falls
TTITLE7=This Road
TTITLE8=Hang on
TTITLE9=Forever I'm With You
TTITLE10=Changin
TTITLE11=Oh But Why
EXTD=
EXTT0=
EXTT1=
EXTT2=
EXTT3=
EXTT4=
EXTT5=
EXTT6=
EXTT7=
EXTT8=
EXTT9=
EXTT10=
EXTT11=
PLAYORDER=
